# xmcd
#
# Track frame offsets:
# 150
# 13086
# 24604
# 37276
# 51969
# 69460
# 83152
# 95790
# 108107
# 122021
# 136881
# 152223
# 168384
# 180378
# 192920
# 204481
#
# Disc length: 2872 seconds
#
#
# Revision: 0
# Processed by: cddbd v1.5.2PL0 Copyright (c) Steve Scherf et al.
# Submitted via: FreeRIP 2.951 
#
DISCID=db0b3610
DTITLE=bonde do maluco - bonde do maluco
DYEAR=2007
DGENRE=arrocha
TTITLE0=ç
TTITLE1=o
TTITLE2=lk
TTITLE3=k
TTITLE4=mn
TTITLE5=jk
TTITLE6=g
TTITLE7=h
TTITLE8=i
TTITLE9=df
TTITLE10=
TTITLE11=j
TTITLE12=f
TTITLE13=w
TTITLE14=s
TTITLE15=t
EXTD=
EXTT0=
EXTT1=
EXTT2=
EXTT3=
EXTT4=
EXTT5=
EXTT6=
EXTT7=
EXTT8=
EXTT9=
EXTT10=
EXTT11=
EXTT12=
EXTT13=
EXTT14=
EXTT15=
PLAYORDER=
